<?xml version="1.0" encoding="utf-8"?>
<!-- Generator: Adobe Illustrator 16.0.0, SVG Export Plug-In . SVG Version: 6.00 Build 0)  -->
<!DOCTYPE svg PUBLIC "-//W3C//DTD SVG 1.1//EN" "http://www.w3.org/Graphics/SVG/1.1/DTD/svg11.dtd">
<svg version="1.1" id="Layer_1" xmlns="http://www.w3.org/2000/svg" xmlns:xlink="http://www.w3.org/1999/xlink" x="0px" y="0px"
	 width="200px" height="200px" viewBox="0 0 200 200" enable-background="new 0 0 200 200" xml:space="preserve">
<g>
	<path d="M186.405,15.292c-1.961-0.92-4.276-0.618-5.936,0.769c-20.138,16.799-40.026,26.077-55.668,31.212
		c-9.113,2.99-16.771,4.577-22.211,5.413c-4.102,0.629-6.936,0.84-8.158,0.903v10.245v0.919c1.268-0.043,4.537-0.215,9.393-0.919
		c7.234-1.051,17.961-3.296,30.701-8.051c5.984-2.235,12.414-5.025,19.143-8.51c7.938-4.117,16.289-9.187,24.798-15.47v115.238
		c-6.531-4.556-12.84-8.469-18.9-11.868c-8.759-4.919-16.971-8.73-24.4-11.659c-10.014-3.949-18.621-6.319-25.361-7.748
		c-8.243-1.747-13.661-2.089-15.372-2.149v2.149v3.674l-0.014,5.335c1.698,0.096,6.626,0.496,14.032,2.144
		c6.723,1.49,15.477,4.019,25.685,8.257c13.426,5.576,29.355,14.128,46.515,27.275c0.991,0.76,2.184,1.151,3.392,1.151
		c0.841,0,1.684-0.193,2.462-0.577c1.906-0.94,3.112-2.875,3.112-4.997V20.341C189.616,18.176,188.361,16.209,186.405,15.292z"/>
	<path d="M98.417,178.061l-14.104-53.825v-8.475V52.685H48.204c-20.635,0-37.426,16.647-37.426,37.112
		c0,15.699,9.896,29.121,23.813,34.533l25.211,57.384c0.891,2.026,2.89,3.335,5.104,3.335h28.113c1.73,0,3.359-0.802,4.415-2.171
		S98.851,179.729,98.417,178.061z M21.925,89.797c0-14.316,11.79-25.963,26.279-25.963h23.883v51.929H48.204
		C33.715,115.763,21.925,104.114,21.925,89.797z M68.547,173.9l-20.611-46.912H73.51L85.799,173.9H68.547z"/>
</g>
</svg>
